	<svg version="1.1" id="Layer_1" xmlns="http://www.w3.org/2000/svg" xmlns:xlink="http://www.w3.org/1999/xlink" x="0px" y="0px"
		width="100%" viewBox="0 0 500 500" enable-background="new 0 0 500 500" xml:space="preserve">
	<path fill="#555555" opacity="1.000000" stroke="none" 
		d="
	M339.000000,501.000000 
		C226.000031,501.000000 113.500053,501.000000 1.000060,501.000000 
		C1.000040,334.333405 1.000040,167.666794 1.000020,1.000150 
		C167.666565,1.000100 334.333130,1.000100 500.999756,1.000050 
		C500.999847,167.666519 500.999847,334.333038 500.999939,500.999786 
		C447.166656,501.000000 393.333344,501.000000 339.000000,501.000000 
	M311.403381,240.951538 
		C310.936249,241.296722 310.469086,241.641922 309.343201,241.922760 
		C308.556732,242.277969 307.770294,242.633179 306.209229,242.962280 
		C302.450256,244.322205 298.691284,245.682129 294.847260,246.117554 
		C292.942871,241.438599 291.038483,236.759644 289.150513,231.449753 
		C283.304596,221.554718 274.176331,216.948502 263.506622,214.578644 
		C265.475433,211.852951 267.444244,209.127243 269.961243,206.834488 
		C270.643372,206.899033 271.325531,206.963593 272.649567,207.490433 
		C273.169281,207.532440 273.688965,207.574432 274.684570,208.056000 
		C276.122711,208.412292 277.560852,208.768600 279.732239,209.504410 
		C280.547882,209.527954 281.363495,209.551483 282.763367,209.993530 
		C295.435699,212.600357 306.445221,209.556641 315.350983,200.040421 
		C323.558746,191.270081 323.214447,181.220047 313.896393,173.732269 
		C308.276550,169.216248 301.736572,165.845261 295.204956,161.375885 
		C295.004761,161.249207 294.804565,161.122528 294.474487,160.424469 
		C292.662842,159.324326 290.851227,158.224182 288.494171,156.576950 
		C286.935913,155.725372 285.377625,154.873795 283.667969,153.448196 
		C282.443451,152.878891 281.218933,152.309601 279.352325,151.266663 
		C279.093903,151.203751 278.835480,151.140823 278.365723,150.505112 
		C271.293365,147.760025 264.221008,145.014954 256.522522,141.954453 
		C256.060425,141.940323 255.598312,141.926193 254.652893,141.417328 
		C241.467514,137.651215 228.369537,138.373825 215.631409,143.034683 
		C200.057327,148.733215 187.939575,158.899353 178.996719,173.096436 
		C178.996719,173.096436 178.944992,173.335297 178.593765,173.299942 
		C178.338760,173.447556 178.282242,173.650543 178.122299,174.150818 
		C178.122299,174.150818 178.040741,174.528992 177.588089,174.569763 
		C177.347427,175.046249 177.106766,175.522751 176.272507,176.415955 
		C175.794189,177.244125 175.315872,178.072281 174.259033,179.200211 
		C171.073227,183.991867 168.176910,189.011093 164.631958,193.520401 
		C159.650894,199.856461 154.188110,205.813828 148.296829,212.174545 
		C145.431595,214.846115 142.566376,217.517685 139.332275,220.293503 
		C139.332275,220.293503 139.152008,220.631790 138.496414,220.638580 
		C126.609818,229.886856 113.661987,236.919891 98.450958,239.228653 
		C98.350883,239.763855 98.250816,240.299057 98.150742,240.834259 
		C104.098381,243.409149 110.046021,245.984055 116.472984,249.004730 
		C117.111115,249.116333 117.749237,249.227921 118.944839,249.789429 
		C122.261696,250.866272 125.581429,251.934357 128.894928,253.021393 
		C150.086121,259.973328 171.799576,263.116577 193.865173,259.306610 
		C204.736908,257.429474 215.205765,253.218979 226.168457,250.876587 
		C226.471878,252.514130 226.808929,254.146240 227.073471,255.790039 
		C229.456543,270.597046 241.087265,281.831329 256.564026,284.410522 
		C257.001221,284.582855 257.438385,284.755188 257.330658,285.681274 
		C255.962311,286.892365 254.593964,288.103424 252.517471,288.717285 
		C248.321304,287.802948 244.125122,286.888611 239.785370,285.505981 
		C238.867172,285.443390 237.948990,285.380798 236.183807,284.969513 
		C233.772736,285.096161 231.361649,285.222809 228.453751,285.066406 
		C226.996735,285.516327 225.539734,285.966248 223.255081,286.321991 
		C222.480667,286.589233 221.706268,286.856506 220.316620,286.977264 
		C215.895416,290.104309 210.708542,292.550201 207.202499,296.491364 
		C198.183640,306.629517 202.250519,320.963562 215.516235,326.645111 
		C215.947159,326.797180 216.378067,326.949249 216.980804,327.620453 
		C217.310226,327.727753 217.639664,327.835052 218.375076,328.441437 
		C219.508041,329.000061 220.641022,329.558685 222.074860,330.607635 
		C222.744339,330.956482 223.413818,331.305328 224.439697,332.010132 
		C224.607040,332.023956 224.774368,332.037750 225.230209,332.642212 
		C234.671646,338.055481 244.113098,343.468750 253.521271,349.232391 
		C253.939163,349.347412 254.357040,349.462402 255.432785,350.080475 
		C256.496002,350.341614 257.559204,350.602722 258.531738,351.195892 
		C258.926331,351.269348 259.320923,351.342834 260.393982,351.864502 
		C260.925781,351.939331 261.457611,352.014191 262.241058,352.465454 
		C262.775238,352.476318 263.309448,352.487213 264.583282,353.051270 
		C266.375488,353.390228 268.167664,353.729187 270.328857,354.496246 
		C271.196045,354.559204 272.063232,354.622162 273.656982,355.128479 
		C274.215820,355.166809 274.774628,355.205170 275.442810,355.606964 
		C275.883545,355.562653 276.324249,355.518372 277.684265,355.775177 
		C282.139191,355.745361 286.594147,355.715546 291.663147,355.943756 
		C294.473938,355.312561 297.284698,354.681335 300.566437,354.119812 
		C300.566437,354.119812 301.008087,353.942017 301.721405,354.110321 
		C302.162933,353.934387 302.604462,353.758484 303.519806,353.707886 
		C304.728180,353.164276 305.936584,352.620667 307.831757,352.099091 
		C308.238037,351.902527 308.644287,351.705994 309.505432,351.771759 
		C322.089020,347.237915 332.268585,339.349670 340.180725,328.743652 
		C347.623474,318.766724 353.923828,307.899506 361.751495,298.255707 
		C377.877625,278.388123 396.850861,262.293579 422.911652,256.902008 
		C423.318115,256.817932 423.641815,256.334015 424.608459,255.540756 
		C422.628845,254.245865 421.065735,252.742599 419.203796,252.083176 
		C406.681854,247.648483 394.270660,242.744446 381.470490,239.307373 
		C372.937622,237.016144 363.821106,236.898621 354.084717,235.499390 
		C349.705322,235.613174 345.325928,235.726944 340.152405,235.572449 
		C339.070648,235.750900 337.988892,235.929352 336.202057,235.779144 
		C335.459747,235.934677 334.717468,236.090210 333.361145,235.907822 
		C331.894653,236.266113 330.428162,236.624390 328.127075,236.848190 
		C327.029022,237.051193 325.931000,237.254196 324.351776,237.173843 
		C322.457611,237.735733 320.563446,238.297623 317.839355,238.832809 
		C316.592438,239.346497 315.345551,239.860168 313.664581,240.112579 
		C313.099365,240.398651 312.534149,240.684738 311.950775,241.033539 
		C311.950775,241.033539 312.013580,241.051422 311.403381,240.951538 
	M299.500000,43.950832 
		C324.236542,43.950832 348.973053,43.950832 373.709595,43.950832 
		C373.708557,43.722870 373.707520,43.494907 373.706482,43.266945 
		C293.893188,43.266945 214.079895,43.266945 134.266602,43.266945 
		C134.266296,43.494602 134.266006,43.722260 134.265701,43.949917 
		C189.010468,43.949917 243.755234,43.949917 299.500000,43.950832 
	M222.500000,457.983612 
		C195.355789,457.983612 168.211578,457.983612 141.067368,457.983612 
		C141.068939,458.256592 141.070496,458.529602 141.072067,458.802582 
		C216.404205,458.802582 291.736328,458.802582 367.068481,458.802582 
		C367.069183,458.529541 367.069885,458.256470 367.070587,457.983429 
		C319.213715,457.983429 271.356873,457.983429 222.500000,457.983612 
	M478.987061,332.498749 
		C478.987061,338.289764 478.987061,344.080750 478.987061,349.871765 
		C479.236359,349.869476 479.485626,349.867188 479.734924,349.864899 
		C479.734924,283.633026 479.734924,217.401154 479.734924,151.169281 
		C479.485962,151.168991 479.237000,151.168686 478.988037,151.168396 
		C478.988037,211.278687 478.988037,271.388977 478.987061,332.498749 
	M30.109327,243.500015 
		C30.109327,220.965378 30.109327,198.430740 30.109327,175.896088 
		C29.868967,175.898560 29.628609,175.901016 29.388248,175.903488 
		C29.388248,211.574219 29.388248,247.244965 29.388248,282.915710 
		C29.628609,282.915802 29.868971,282.915924 30.109331,282.916016 
		C30.109331,270.110687 30.109331,257.305359 30.109327,243.500015 
	z"/>
	<path fill="#CD1689" opacity="1.000000" stroke="none" 
		d="
	M118.387367,249.339508 
		C117.749237,249.227921 117.111115,249.116333 116.105530,248.490509 
		C111.326370,245.692612 106.914658,243.408905 101.460213,240.585464 
		C107.218422,238.601929 111.770546,237.261993 116.142235,235.479538 
		C124.720894,231.981750 132.917206,227.802307 139.152008,220.631790 
		C139.152008,220.631790 139.332275,220.293503 139.825928,220.192017 
		C142.565506,218.462418 144.811432,216.834305 147.164383,215.503235 
		C149.218262,219.007156 151.163010,222.215286 153.112732,225.420395 
		C154.229660,227.256516 154.925049,229.949875 156.555237,230.762253 
		C161.800812,233.376282 162.243301,239.013519 165.103500,243.068680 
		C167.324265,246.217270 166.019562,250.348480 163.018387,250.791702 
		C158.644974,251.437607 154.204666,251.949890 149.793671,251.943695 
		C143.825516,251.935303 137.858154,251.381683 131.468414,251.058884 
		C126.826721,250.483704 122.607048,249.911606 118.387367,249.339508 
	z"/>
	<path fill="#C13994" opacity="1.000000" stroke="none" 
		d="
	M306.983826,242.988373 
		C307.770294,242.633179 308.556732,242.277969 309.867432,242.096008 
		C310.932312,241.863297 311.472961,241.457367 312.013580,241.051422 
		C312.013580,241.051422 311.950775,241.033539 312.286255,241.065491 
		C313.062286,241.149719 313.502838,241.201981 313.954346,241.638504 
		C312.977997,243.939407 312.479706,246.579269 310.912811,247.638672 
		C305.983826,250.971298 300.609528,253.636734 295.487366,256.694000 
		C284.734863,263.111786 284.789612,263.141174 286.735352,275.049194 
		C287.607269,280.385376 288.312256,285.748901 289.077026,291.080627 
		C289.061066,291.061249 289.101410,291.074341 288.732483,291.075562 
		C287.271729,292.128479 286.179871,293.180237 284.963257,294.519501 
		C283.347046,295.896027 281.855652,296.984985 280.106934,298.219055 
		C279.582184,298.649841 279.314758,298.935547 279.026276,299.543365 
		C278.857666,300.269043 278.710114,300.672607 278.335083,301.200989 
		C277.625275,301.531891 277.142944,301.738037 276.307281,301.989319 
		C275.476227,302.168884 275.005402,302.381592 274.519623,302.424255 
		C272.363068,302.613495 269.847229,303.475983 268.170929,302.651733 
		C267.099213,302.124817 267.287506,299.074219 266.872803,297.163300 
		C266.185150,293.994690 265.281494,290.859039 264.827911,287.658569 
		C264.536041,285.599487 264.061462,282.258698 265.091339,281.544922 
		C269.690918,278.357117 268.906189,273.451172 270.129669,268.910553 
		C270.488159,268.444977 270.744873,268.218689 271.336121,267.921143 
		C274.747101,264.510864 277.823517,261.171783 280.904541,257.869934 
		C280.909088,257.907135 280.834320,257.912231 281.199097,257.830872 
		C283.416748,257.128357 285.285553,256.550354 287.118256,255.874527 
		C289.178345,255.114838 291.379211,254.314987 288.181885,251.861053 
		C288.176575,251.670059 288.197906,251.288544 288.493774,251.269226 
		C289.264435,250.918823 289.739197,250.587723 290.557709,250.217194 
		C291.584900,250.089966 292.268341,250.002167 293.194031,250.089081 
		C297.952087,247.838654 302.467957,245.413513 306.983826,242.988373 
	z"/>
	<path fill="#EB6241" opacity="1.000000" stroke="none" 
		d="
	M274.208679,207.616440 
		C273.688965,207.574432 273.169281,207.532440 272.245728,207.062424 
		C271.536957,206.324387 271.231964,206.014374 270.931641,205.358246 
		C273.533936,201.665390 276.096954,198.291031 278.737854,194.978745 
		C282.195190,190.642532 281.576813,187.706635 276.240173,186.095978 
		C272.995728,185.116776 269.436218,185.181595 266.192627,184.470093 
		C267.251556,183.787369 268.106873,183.195740 269.025391,183.071609 
		C275.079956,182.253387 275.832062,181.181412 274.315979,175.472916 
		C272.831116,169.881805 271.416992,164.271881 270.386536,158.554718 
		C272.222260,158.496185 273.643250,158.553146 275.238983,158.858215 
		C276.932800,159.715668 278.410522,160.687302 279.978760,160.866226 
		C284.624146,161.396255 287.468872,162.912186 286.143341,168.426712 
		C285.756836,170.034836 286.624908,172.000549 287.105286,173.750916 
		C288.856842,180.132950 290.429047,186.581741 292.568909,192.834244 
		C294.341309,198.013123 296.818481,202.950821 298.630859,208.204132 
		C292.911896,208.800278 287.545532,209.187637 282.179138,209.575012 
		C281.363495,209.551483 280.547882,209.527954 279.217987,209.085266 
		C277.205383,208.316223 275.707031,207.966324 274.208679,207.616440 
	z"/>
	<path fill="#C03B8F" opacity="1.000000" stroke="none" 
		d="
	M266.018219,184.777405 
		C269.436218,185.181595 272.995728,185.116776 276.240173,186.095978 
		C281.576813,187.706635 282.195190,190.642532 278.737854,194.978745 
		C276.096954,198.291031 273.533936,201.665390 270.765015,205.409851 
		C270.200195,206.005569 269.806641,206.203568 269.413055,206.401550 
		C267.444244,209.127243 265.475433,211.852951 263.183167,215.137619 
		C262.382294,216.339233 261.904877,216.981873 261.196960,217.848022 
		C259.509552,220.045242 258.052704,222.018967 256.336609,223.986786 
		C255.731750,223.970978 255.386154,223.961060 255.102463,223.599915 
		C255.962891,221.274185 256.761414,219.299667 257.131653,218.384201 
		C255.113724,213.757645 253.282379,209.954300 251.788422,206.022781 
		C250.285553,202.067734 245.534805,198.541290 241.538681,198.392715 
		C242.581909,196.811661 243.474487,195.536209 244.602020,194.186493 
		C245.243393,193.840195 245.649841,193.568130 246.347168,193.168060 
		C247.183350,192.431229 247.728683,191.822418 248.621552,191.153656 
		C253.324203,189.095215 257.679321,187.096710 262.433838,185.124603 
		C263.894897,185.026474 264.956573,184.901947 266.018219,184.777405 
	z"/>
	<path fill="#BD308E" opacity="1.000000" stroke="none" 
		d="
	M289.092987,291.100006 
		C288.312256,285.748901 287.607269,280.385376 286.735352,275.049194 
		C284.789612,263.141174 284.734863,263.111786 295.487366,256.694000 
		C300.609528,253.636734 305.983826,250.971298 310.912811,247.638672 
		C312.479706,246.579269 312.977997,243.939407 313.994354,241.491837 
		C314.081573,240.769470 314.106659,240.573776 314.098633,240.373856 
		C315.345551,239.860168 316.592438,239.346497 318.627655,238.894836 
		C321.221619,238.456970 323.027283,237.957092 324.832947,237.457214 
		C325.931000,237.254196 327.029022,237.051193 328.884216,236.957825 
		C331.085968,236.793564 332.530579,236.519669 333.975159,236.245773 
		C334.717468,236.090210 335.459747,235.934677 336.387573,236.165237 
		C334.375427,239.697220 332.177734,242.843109 329.651520,245.990799 
		C328.884430,245.995270 328.445892,245.997940 327.619202,246.026215 
		C320.965363,248.084305 314.613953,249.889267 308.456451,252.209000 
		C301.356171,254.883926 300.223694,258.201996 302.394745,265.185242 
		C304.042664,270.485809 304.925446,276.024261 305.947510,281.728455 
		C300.195221,285.033386 294.644104,288.066681 289.092987,291.100006 
	z"/>
	<path fill="#C13994" opacity="1.000000" stroke="none" 
		d="
	M301.008087,353.942017 
		C301.008087,353.942017 300.566437,354.119812 299.916199,354.031738 
		C296.536438,354.214783 293.806946,354.485870 290.702972,354.591187 
		C288.045441,354.282257 285.752502,353.931091 283.481384,354.039001 
		C278.699890,354.266266 277.154449,351.704407 276.985168,347.402313 
		C276.808105,342.902283 276.334900,338.413940 276.223999,333.711731 
		C277.790497,332.985596 279.124054,332.468231 280.745728,331.811157 
		C281.346405,331.386292 281.659027,331.101166 282.150146,330.536133 
		C287.137512,326.783539 291.946350,323.310883 296.805969,320.292297 
		C298.550049,327.504730 300.353943,334.238403 301.875305,341.035278 
		C302.391907,343.343262 302.404236,345.823456 302.260040,348.201477 
		C302.142883,350.133209 301.447205,352.029816 301.008087,353.942017 
	z"/>
	<path fill="#B83E91" opacity="1.000000" stroke="none" 
		d="
	M275.064270,158.610107 
		C273.643250,158.553146 272.222260,158.496185 269.960938,158.432678 
		C267.105865,158.541275 265.091064,158.656387 262.766968,158.638519 
		C261.677551,158.781357 260.897430,159.057190 259.726318,159.324646 
		C258.563538,159.429321 257.791718,159.542343 256.684814,159.516602 
		C255.222244,159.890778 254.094742,160.403717 252.801117,160.964294 
		C252.634995,161.011917 252.329803,161.174118 252.350266,161.179443 
		C252.370728,161.184753 252.357056,161.175217 251.953308,161.250427 
		C251.003754,161.325455 250.457947,161.325256 249.755859,161.111237 
		C247.951233,160.558578 246.302872,160.219757 245.425156,160.039337 
		C244.538513,157.168716 244.529495,154.125870 243.026855,152.869675 
		C239.311554,149.763748 239.446869,143.658524 234.164124,141.987762 
		C234.016220,141.940964 234.032516,141.375046 234.441040,141.039505 
		C241.651962,141.322571 248.394089,141.617325 255.136215,141.912079 
		C255.598312,141.926193 256.060425,141.940323 257.080994,142.343628 
		C264.618652,145.514496 271.597839,148.296204 278.577057,151.077911 
		C278.835480,151.140823 279.093903,151.203751 279.803528,151.751373 
		C281.442932,152.831451 282.631165,153.426834 283.819366,154.022217 
		C285.377625,154.873795 286.935913,155.725372 288.885468,157.087570 
		C291.052643,158.730743 292.828522,159.863297 294.604401,160.995850 
		C294.804565,161.122528 295.004761,161.249207 294.973267,161.719711 
		C294.173431,162.165955 293.605316,162.268356 292.670563,162.209930 
		C286.557373,160.902756 280.810822,159.756424 275.064270,158.610107 
	z"/>
	<path fill="#B54390" opacity="1.000000" stroke="none" 
		d="
	M275.991119,333.920471 
		C276.334900,338.413940 276.808105,342.902283 276.985168,347.402313 
		C277.154449,351.704407 278.699890,354.266266 283.481384,354.039001 
		C285.752502,353.931091 288.045441,354.282257 290.680420,354.824036 
		C291.032349,355.222656 291.049072,355.685730 291.049072,355.685730 
		C286.594147,355.715546 282.139191,355.745361 277.112122,355.513031 
		C276.137787,355.248413 275.735626,355.245941 275.333466,355.243500 
		C274.774628,355.205170 274.215820,355.166809 273.088562,354.752441 
		C271.666687,354.273651 270.813293,354.170898 269.959869,354.068115 
		C268.167664,353.729187 266.375488,353.390228 264.050903,352.669189 
		C263.008850,352.221069 262.499115,352.155060 261.989410,352.089020 
		C261.457611,352.014191 260.925781,351.939331 259.947144,351.527832 
		C259.236115,351.006073 258.943512,350.896973 258.622437,350.863831 
		C257.559204,350.602722 256.496002,350.341614 254.990524,349.688904 
		C254.217026,349.158905 253.885773,349.020447 253.554535,348.882019 
		C244.113098,343.468750 234.671646,338.055481 225.125275,332.296692 
		C225.020355,331.951141 225.093842,331.847137 225.475174,331.879150 
		C230.912231,333.198456 235.967957,334.485718 241.348770,335.861267 
		C242.121536,335.962708 242.569199,335.975830 243.216293,336.181580 
		C243.941269,336.444214 244.466827,336.514221 245.395325,336.682495 
		C246.899307,336.814240 248.000351,336.847656 249.339294,337.080811 
		C250.365616,337.255157 251.154037,337.229767 252.363556,337.320618 
		C254.502930,337.340698 256.221191,337.244568 258.190063,337.265930 
		C258.921082,337.194336 259.401489,337.005249 260.296631,336.842896 
		C265.804626,335.886566 270.897858,334.903503 275.991119,333.920471 
	z"/>
	<path fill="#D94A44" opacity="1.000000" stroke="none" 
		d="
	M293.037201,162.370758 
		C293.605316,162.268356 294.173431,162.165955 295.175781,162.011658 
		C301.736572,165.845261 308.276550,169.216248 313.896393,173.732269 
		C323.214447,181.220047 323.558746,191.270081 315.350983,200.040421 
		C306.445221,209.556641 295.435699,212.600357 282.471252,209.784271 
		C287.545532,209.187637 292.911896,208.800278 298.967590,208.063049 
		C308.147919,205.076996 308.489197,204.476685 306.458008,195.794907 
		C306.005280,193.859818 305.552155,191.924637 305.123230,189.984192 
		C302.912598,179.983215 302.556824,169.172272 293.037201,162.370758 
	z"/>
	<path fill="#C43191" opacity="1.000000" stroke="none" 
		d="
	M301.364746,354.026184 
		C301.447205,352.029816 302.142883,350.133209 302.260040,348.201477 
		C302.404236,345.823456 302.391907,343.343262 301.875305,341.035278 
		C300.353943,334.238403 298.550049,327.504730 296.829529,320.302582 
		C296.802338,319.858826 296.821747,319.902679 297.148682,319.819885 
		C297.945038,319.034698 298.414490,318.332306 298.937164,317.428375 
		C298.990387,317.226837 299.241302,316.893860 299.371735,316.780701 
		C299.668091,316.506012 299.812866,316.327271 300.108734,315.834534 
		C303.501190,310.974274 306.721436,306.410889 309.957916,302.308716 
		C310.771912,309.971802 311.567505,317.173859 312.374451,324.374664 
		C312.410980,324.700806 312.491150,325.048553 312.649933,325.330597 
		C316.098816,331.456757 313.223572,339.306274 317.836609,345.337830 
		C314.779968,347.581085 311.915283,349.545258 309.050568,351.509430 
		C308.644287,351.705994 308.238037,351.902527 307.139282,352.036072 
		C305.313202,352.509552 304.179596,353.046051 303.045959,353.582581 
		C302.604462,353.758484 302.162933,353.934387 301.364746,354.026184 
	z"/>
	<path fill="#E6BE1A" opacity="1.000000" stroke="none" 
		d="
	M256.131866,283.841553 
		C241.087265,281.831329 229.456543,270.597046 227.073471,255.790039 
		C226.808929,254.146240 226.471878,252.514130 225.972275,250.475159 
		C225.776093,250.073746 225.735794,250.144958 225.988251,250.114304 
		C226.675888,249.802277 227.111069,249.520889 227.666077,249.570129 
		C229.361588,263.742889 235.032410,274.779205 248.764465,280.147522 
		C250.208954,280.712250 251.945297,280.530396 253.546234,280.694916 
		C253.409607,278.612122 253.918015,276.137421 252.956909,274.555573 
		C251.974609,272.938843 249.539444,271.231110 247.759796,271.251648 
		C241.976288,271.318451 239.895004,267.896240 238.563202,263.201263 
		C237.428146,259.199768 236.323303,255.175629 234.872665,251.285461 
		C234.372986,249.945465 232.870407,248.979431 231.984192,247.610809 
		C232.391479,246.878113 232.640549,246.377151 232.941833,245.923309 
		C232.994049,245.970428 232.902100,245.862930 233.250397,245.889313 
		C234.700302,245.595840 235.801910,245.275970 237.240616,245.039459 
		C238.537354,245.984406 239.558243,246.787506 240.446243,247.717529 
		C244.653519,252.123856 248.824539,256.564819 253.192383,261.282440 
		C256.300751,263.060974 259.225189,264.550537 262.151794,266.396729 
		C262.896667,269.665894 263.639404,272.578430 264.292725,275.794342 
		C263.449158,277.093842 262.695038,278.089966 261.641754,279.158630 
		C259.605682,280.767975 257.868774,282.304779 256.131866,283.841553 
	z"/>
	<path fill="#BB4590" opacity="1.000000" stroke="none" 
		d="
	M261.940918,279.086090 
		C262.695038,278.089966 263.449158,277.093842 264.585449,275.630493 
		C266.654388,273.158783 268.341156,271.154297 270.027893,269.149811 
		C268.906189,273.451172 269.690918,278.357117 265.091339,281.544922 
		C264.061462,282.258698 264.536041,285.599487 264.827911,287.658569 
		C265.281494,290.859039 266.185150,293.994690 266.872803,297.163300 
		C267.287506,299.074219 267.099213,302.124817 268.170929,302.651733 
		C269.847229,303.475983 272.363068,302.613495 274.519623,302.424255 
		C275.005402,302.381592 275.476227,302.168884 276.378235,302.202698 
		C276.802551,302.370972 276.923248,302.802429 276.705994,302.986755 
		C275.963959,303.706879 275.439209,304.242706 274.613525,304.872284 
		C273.799133,305.583008 273.285645,306.199982 272.807556,306.804688 
		C272.842957,306.792419 272.801056,306.730316 272.424652,306.723450 
		C267.704529,308.180664 263.360779,309.644714 258.562500,311.048340 
		C252.399139,310.941010 246.538071,311.525391 241.921051,306.693604 
		C243.215973,303.861542 244.481323,301.411621 245.989990,298.722443 
		C248.564087,295.427002 250.894852,292.370758 253.225616,289.314514 
		C254.593964,288.103424 255.962311,286.892365 257.763000,285.127930 
		C259.443848,282.745087 260.692383,280.915588 261.940918,279.086090 
	z"/>
	<path fill="#AD2C81" opacity="1.000000" stroke="none" 
		d="
	M309.278015,351.640594 
		C311.915283,349.545258 314.779968,347.581085 318.141907,345.171936 
		C325.852203,341.525543 331.421356,336.370972 336.319336,329.898773 
		C342.438873,321.171539 348.276459,312.629425 354.377808,303.886932 
		C359.757080,297.797485 364.872498,291.908356 369.998596,286.014648 
		C370.009216,286.010071 370.020233,285.989685 370.283203,285.837830 
		C371.364777,284.800293 372.183319,283.914612 373.286041,282.851807 
		C386.361145,271.660400 399.602509,261.404816 416.293793,256.802673 
		C417.206787,256.550934 418.150085,255.493774 418.511993,254.585526 
		C418.668060,254.193787 417.507111,252.853638 416.722748,252.580017 
		C411.876373,250.889420 406.966797,249.379990 401.858826,247.567627 
		C400.432281,246.872375 399.225159,246.419861 397.710571,245.774597 
		C395.956451,245.367752 394.509766,245.153671 392.895844,244.625397 
		C390.153137,243.535522 387.577698,242.759857 384.791504,241.816315 
		C384.071350,241.508484 383.561920,241.368546 382.654846,241.182648 
		C381.195404,241.069138 380.133575,241.001587 378.755737,240.729111 
		C370.607178,239.385773 362.774689,238.247360 354.933350,236.891876 
		C354.907043,236.384445 354.920776,236.095612 354.965790,235.808258 
		C363.821106,236.898621 372.937622,237.016144 381.470490,239.307373 
		C394.270660,242.744446 406.681854,247.648483 419.203796,252.083176 
		C421.065735,252.742599 422.628845,254.245865 424.608459,255.540756 
		C423.641815,256.334015 423.318115,256.817932 422.911652,256.902008 
		C396.850861,262.293579 377.877625,278.388123 361.751495,298.255707 
		C353.923828,307.899506 347.623474,318.766724 340.180725,328.743652 
		C332.268585,339.349670 322.089020,347.237915 309.278015,351.640594 
	z"/>
	<path fill="#AD2C81" opacity="1.000000" stroke="none" 
		d="
	M225.735794,250.144958 
		C225.735794,250.144958 225.776093,250.073746 225.816513,250.069031 
		C215.205765,253.218979 204.736908,257.429474 193.865173,259.306610 
		C171.799576,263.116577 150.086121,259.973328 128.894928,253.021393 
		C125.581429,251.934357 122.261696,250.866272 118.666107,249.564468 
		C122.607048,249.911606 126.826721,250.483704 131.642029,251.377579 
		C142.230591,253.973953 151.377640,258.713501 162.729797,254.918228 
		C173.186310,251.422394 184.839233,251.505188 196.203491,250.031738 
		C196.441818,250.051880 196.917465,250.093445 196.799698,250.405426 
		C196.106339,251.291275 195.425125,251.793533 194.977234,252.454010 
		C194.060364,253.806091 193.268784,255.243118 192.425598,256.645172 
		C193.918655,256.854004 195.532944,257.537170 196.884369,257.191803 
		C203.718369,255.445328 210.460617,253.342117 217.285049,251.554916 
		C220.036346,250.834412 222.915070,250.600388 225.735794,250.144958 
	z"/>
	<path fill="#D94A44" opacity="1.000000" stroke="none" 
		d="
	M215.033844,326.148102 
		C202.250519,320.963562 198.183640,306.629517 207.202499,296.491364 
		C210.708542,292.550201 215.895416,290.104309 220.484314,287.298553 
		C216.216232,289.694214 213.895981,292.497803 216.126511,297.769531 
		C218.158264,302.571442 219.920425,307.542572 221.169846,312.595306 
		C221.733261,314.873840 220.762299,317.531769 220.487503,320.017578 
		C218.197495,319.740112 215.912476,319.401154 213.615112,319.213928 
		C212.624496,319.133179 211.608261,319.366547 210.603668,319.457245 
		C210.845062,320.508148 210.755447,321.914734 211.408920,322.522797 
		C212.290085,323.342743 213.743240,323.548004 214.973511,324.282959 
		C215.008667,325.081970 215.021255,325.615051 215.033844,326.148102 
	z"/>
	<path fill="#E55841" opacity="1.000000" stroke="none" 
		d="
	M214.950943,324.017029 
		C213.743240,323.548004 212.290085,323.342743 211.408920,322.522797 
		C210.755447,321.914734 210.845062,320.508148 210.603668,319.457245 
		C211.608261,319.366547 212.624496,319.133179 213.615112,319.213928 
		C215.912476,319.401154 218.197495,319.740112 220.487503,320.017578 
		C220.762299,317.531769 221.733261,314.873840 221.169846,312.595306 
		C219.920425,307.542572 218.158264,302.571442 216.126511,297.769531 
		C213.895981,292.497803 216.216232,289.694214 220.791946,287.371826 
		C221.706268,286.856506 222.480667,286.589233 223.670624,286.560181 
		C224.086166,286.798401 224.131805,287.177826 224.177994,287.525238 
		C226.733337,296.617065 229.655243,305.272583 231.566757,314.145752 
		C232.441849,318.207916 234.695587,322.895477 230.599670,326.987457 
		C229.141785,326.979736 228.081833,326.972168 226.873413,326.643555 
		C222.986832,324.601318 219.454590,321.828705 214.950943,324.017029 
	z"/>
	<path fill="#F39029" opacity="1.000000" stroke="none" 
		d="
	M261.427490,217.624512 
		C261.904877,216.981873 262.382294,216.339233 263.024414,215.517151 
		C274.176331,216.948502 283.304596,221.554718 288.916687,231.995590 
		C287.783081,236.681732 286.883301,240.822021 285.697327,245.062454 
		C284.957672,245.781906 284.504211,246.401215 284.035217,247.385925 
		C283.994476,248.482330 283.969330,249.213333 283.635773,250.057373 
		C282.697266,251.975952 282.067230,253.781509 281.393738,255.886353 
		C281.178314,256.761169 281.006317,257.336700 280.834320,257.912231 
		C280.834320,257.912231 280.909088,257.907135 280.596649,257.910431 
		C279.702301,258.126099 279.120392,258.338470 278.382050,258.391479 
		C278.225616,258.232147 277.912476,257.913757 277.939026,257.454285 
		C277.980591,247.359039 277.778412,237.716080 278.097626,228.090424 
		C278.270325,222.883743 275.550323,220.355637 271.229156,219.148941 
		C268.066650,218.265808 264.702026,218.106476 261.427490,217.624512 
	z"/>
	<path fill="#4A4A4A" opacity="1.000000" stroke="none" 
		d="
	M299.000000,43.950375 
		C243.755234,43.949917 189.010468,43.949917 134.265701,43.949917 
		C134.266006,43.722260 134.266296,43.494602 134.266602,43.266945 
		C214.079895,43.266945 293.893188,43.266945 373.706482,43.266945 
		C373.707520,43.494907 373.708557,43.722870 373.709595,43.950832 
		C348.973053,43.950832 324.236542,43.950832 299.000000,43.950375 
	z"/>
	<path fill="#4A4A4A" opacity="1.000000" stroke="none" 
		d="
	M223.000000,457.983521 
		C271.356873,457.983429 319.213715,457.983429 367.070587,457.983429 
		C367.069885,458.256470 367.069183,458.529541 367.068481,458.802582 
		C291.736328,458.802582 216.404205,458.802582 141.072067,458.802582 
		C141.070496,458.529602 141.068939,458.256592 141.067368,457.983612 
		C168.211578,457.983612 195.355789,457.983612 223.000000,457.983521 
	z"/>
	<path fill="#AD2C81" opacity="1.000000" stroke="none" 
		d="
	M254.894562,141.664703 
		C248.394089,141.617325 241.651962,141.322571 234.011292,141.033493 
		C228.359848,141.776031 223.404373,141.911453 218.912689,143.424026 
		C214.676178,144.850662 210.927841,147.726929 206.978333,149.973007 
		C206.991928,149.980499 206.976501,149.968674 206.697723,150.028839 
		C205.928009,150.368988 205.437073,150.648956 204.611313,151.017532 
		C199.509109,155.048782 194.741745,158.991440 189.695145,163.116440 
		C187.270432,165.573181 185.124939,167.847565 182.823227,170.228180 
		C182.471573,170.494675 182.306244,170.681610 181.946075,171.113907 
		C181.430023,171.633148 181.138962,171.933655 180.747345,172.307785 
		C180.646790,172.381409 180.351242,172.773300 180.267090,172.920624 
		C180.182953,173.067947 179.997803,173.352295 179.802032,173.297852 
		C179.606247,173.243408 179.239670,173.067856 179.239670,173.067856 
		C187.939575,158.899353 200.057327,148.733215 215.631409,143.034683 
		C228.369537,138.373825 241.467514,137.651215 254.894562,141.664703 
	z"/>
	<path fill="#4A4A4A" opacity="1.000000" stroke="none" 
		d="
	M478.987549,331.999023 
		C478.988037,271.388977 478.988037,211.278687 478.988037,151.168396 
		C479.237000,151.168686 479.485962,151.168991 479.734924,151.169281 
		C479.734924,217.401154 479.734924,283.633026 479.734924,349.864899 
		C479.485626,349.867188 479.236359,349.869476 478.987061,349.871765 
		C478.987061,344.080750 478.987061,338.289764 478.987549,331.999023 
	z"/>
	<path fill="#F06E39" opacity="1.000000" stroke="none" 
		d="
	M252.871552,289.015900 
		C250.894852,292.370758 248.564087,295.427002 245.649475,298.756287 
		C242.826523,300.963837 240.587387,302.898285 238.120850,305.029236 
		C237.434296,299.209808 236.715012,293.113129 236.126282,286.827362 
		C236.443497,286.395172 236.635513,286.156403 237.220154,285.985687 
		C238.381271,286.024384 239.155106,285.999329 239.928955,285.974274 
		C244.125122,286.888611 248.321304,287.802948 252.871552,289.015900 
	z"/>
	<path fill="#E6BE1A" opacity="1.000000" stroke="none" 
		d="
	M283.944214,249.944336 
		C283.969330,249.213333 283.994476,248.482330 284.319000,247.286743 
		C285.073425,246.202225 285.528473,245.582275 285.983521,244.962326 
		C286.883301,240.822021 287.783081,236.681732 288.908478,232.311066 
		C291.038483,236.759644 292.942871,241.438599 294.713074,246.742188 
		C294.036530,248.216003 293.494171,249.065186 292.951813,249.914368 
		C292.268341,250.002167 291.584900,250.089966 290.251465,250.207504 
		C289.133667,250.587692 288.665771,250.938110 288.197906,251.288544 
		C288.197906,251.288544 288.176575,251.670059 287.850555,251.924469 
		C286.692841,252.494553 285.861145,252.810257 284.971375,252.793671 
		C284.590271,251.622375 284.267242,250.783356 283.944214,249.944336 
	z"/>
	<path fill="#AD2C81" opacity="1.000000" stroke="none" 
		d="
	M138.824219,220.635193 
		C132.917206,227.802307 124.720894,231.981750 116.142235,235.479538 
		C111.770546,237.261993 107.218422,238.601929 101.460213,240.585464 
		C106.914658,243.408905 111.326370,245.692612 115.865868,248.267639 
		C110.046021,245.984055 104.098381,243.409149 98.150742,240.834259 
		C98.250816,240.299057 98.350883,239.763855 98.450958,239.228653 
		C113.661987,236.919891 126.609818,229.886856 138.824219,220.635193 
	z"/>
	<path fill="#C92892" opacity="1.000000" stroke="none" 
		d="
	M329.980042,245.988998 
		C332.177734,242.843109 334.375427,239.697220 336.740112,236.329559 
		C337.988892,235.929352 339.070648,235.750900 340.656952,236.030624 
		C344.772308,236.991928 348.383087,237.495041 351.966919,238.369568 
		C350.649597,240.072403 349.557281,242.221939 348.033905,242.590683 
		C342.090027,244.029495 336.009674,244.904404 329.980042,245.988998 
	z"/>
	<path fill="#989898" opacity="1.000000" stroke="none" 
		d="
	M30.109329,244.000031 
		C30.109331,257.305359 30.109331,270.110687 30.109331,282.916016 
		C29.868971,282.915924 29.628609,282.915802 29.388248,282.915710 
		C29.388248,247.244965 29.388248,211.574219 29.388248,175.903488 
		C29.628609,175.901016 29.868967,175.898560 30.109327,175.896088 
		C30.109327,198.430740 30.109327,220.965378 30.109329,244.000031 
	z"/>
	<path fill="#AD2C81" opacity="1.000000" stroke="none" 
		d="
	M148.931351,211.933151 
		C154.188110,205.813828 159.650894,199.856461 164.631958,193.520401 
		C168.176910,189.011093 171.073227,183.991867 174.635071,179.386475 
		C175.067505,180.033936 175.123901,180.495102 174.939697,181.167847 
		C174.404343,181.682678 174.109619,181.985931 173.731064,182.357391 
		C173.647247,182.425583 173.446884,182.800735 173.357483,183.185043 
		C171.837067,186.363495 170.406067,189.157639 168.694580,192.136398 
		C167.548538,193.311279 166.723190,194.340302 165.810883,195.285416 
		C160.322250,200.971451 154.813660,206.638214 149.216736,212.216766 
		C149.121704,212.122131 148.931351,211.933151 148.931351,211.933151 
	z"/>
	<path fill="#EB6241" opacity="1.000000" stroke="none" 
		d="
	M214.973511,324.282959 
		C219.454590,321.828705 222.986832,324.601318 226.528046,326.688202 
		C225.562607,328.002625 224.794098,328.951355 223.648499,329.918152 
		C222.772263,329.996643 222.273117,330.056976 221.773987,330.117310 
		C220.641022,329.558685 219.508041,329.000061 218.022797,327.997162 
		C217.428604,327.316040 217.141434,327.165527 216.808990,327.101318 
		C216.378067,326.949249 215.947159,326.797180 215.275055,326.396606 
		C215.021255,325.615051 215.008667,325.081970 214.973511,324.282959 
	z"/>
	<path fill="#AD2C81" opacity="1.000000" stroke="none" 
		d="
	M278.471375,150.791504 
		C271.597839,148.296204 264.618652,145.514496 257.394043,142.501328 
		C264.221008,145.014954 271.293365,147.760025 278.471375,150.791504 
	z"/>
	<path fill="#BD308E" opacity="1.000000" stroke="none" 
		d="
	M351.993896,237.998169 
		C348.383087,237.495041 344.772308,236.991928 341.054016,236.164764 
		C345.325928,235.726944 349.705322,235.613174 354.525269,235.653824 
		C354.920776,236.095612 354.907043,236.384445 354.678711,237.069397 
		C353.619873,237.642075 352.806885,237.820129 351.993896,237.998169 
	z"/>
	<path fill="#BB4590" opacity="1.000000" stroke="none" 
		d="
	M293.194031,250.089081 
		C293.494171,249.065186 294.036530,248.216003 294.755585,247.204422 
		C298.691284,245.682129 302.450256,244.322205 306.596527,242.975342 
		C302.467957,245.413513 297.952087,247.838654 293.194031,250.089081 
	z"/>
	<path fill="#AD2C81" opacity="1.000000" stroke="none" 
		d="
	M147.057343,215.206177 
		C144.811432,216.834305 142.565506,218.462418 140.010376,220.139893 
		C142.566376,217.517685 145.431595,214.846115 148.614090,212.053848 
		C148.931351,211.933151 149.121704,212.122131 149.079666,212.489868 
		C148.377533,213.640457 147.717438,214.423309 147.057343,215.206177 
	z"/>
	<path fill="#C43191" opacity="1.000000" stroke="none" 
		d="
	M175.180298,180.956284 
		C175.123901,180.495102 175.067505,180.033936 174.924316,179.236603 
		C175.315872,178.072281 175.794189,177.244125 176.761230,176.144012 
		C177.513550,175.424377 177.777145,174.976685 178.040741,174.528992 
		C178.040741,174.528992 178.122299,174.150818 178.401749,173.980377 
		C178.840912,173.691681 178.928833,173.533463 178.944992,173.335297 
		C178.944992,173.335297 178.996719,173.096436 179.118195,173.082153 
		C179.239670,173.067856 179.606247,173.243408 179.776566,173.628983 
		C178.358032,176.328476 176.769165,178.642380 175.180298,180.956284 
	z"/>
	<path fill="#F39029" opacity="1.000000" stroke="none" 
		d="
	M261.641754,279.158630 
		C260.692383,280.915588 259.443848,282.745087 258.035461,284.751038 
		C257.438385,284.755188 257.001221,284.582855 256.347961,284.126038 
		C257.868774,282.304779 259.605682,280.767975 261.641754,279.158630 
	z"/>
	<path fill="#AD2C81" opacity="1.000000" stroke="none" 
		d="
	M291.356110,355.814758 
		C291.049072,355.685730 291.032349,355.222656 291.054901,354.989807 
		C293.806946,354.485870 296.536438,354.214783 299.680725,353.996887 
		C297.284698,354.681335 294.473938,355.312561 291.356110,355.814758 
	z"/>
	<path fill="#E55841" opacity="1.000000" stroke="none" 
		d="
	M236.832886,285.921936 
		C236.635513,286.156403 236.443497,286.395172 235.715759,286.821594 
		C233.119522,286.724609 231.064362,286.444305 229.005447,285.959564 
		C229.001694,285.755157 228.950577,285.349457 228.950577,285.349457 
		C231.361649,285.222809 233.772736,285.096161 236.556335,285.294281 
		C236.928879,285.619049 236.832886,285.921936 236.832886,285.921936 
	z"/>
	<path fill="#AD2C81" opacity="1.000000" stroke="none" 
		d="
	M294.539429,160.710159 
		C292.828522,159.863297 291.052643,158.730743 289.158173,157.361115 
		C290.851227,158.224182 292.662842,159.324326 294.539429,160.710159 
	z"/>
	<path fill="#D94A44" opacity="1.000000" stroke="none" 
		d="
	M274.446625,207.836212 
		C275.707031,207.966324 277.205383,208.316223 278.851379,208.895508 
		C277.560852,208.768600 276.122711,208.412292 274.446625,207.836212 
	z"/>
	<path fill="#D94A44" opacity="1.000000" stroke="none" 
		d="
	M228.702164,285.207947 
		C228.950577,285.349457 229.001694,285.755157 228.649231,286.015320 
		C226.908447,286.576294 225.520126,286.877075 224.131805,287.177826 
		C224.131805,287.177826 224.086166,286.798401 224.084442,286.607300 
		C225.539734,285.966248 226.996735,285.516327 228.702164,285.207947 
	z"/>
	<path fill="#AD2C81" opacity="1.000000" stroke="none" 
		d="
	M324.592346,237.315521 
		C323.027283,237.957092 321.221619,238.456970 319.042603,238.908173 
		C320.563446,238.297623 322.457611,237.735733 324.592346,237.315521 
	z"/>
	<path fill="#AD2C81" opacity="1.000000" stroke="none" 
		d="
	M303.282898,353.645203 
		C304.179596,353.046051 305.313202,352.509552 306.795898,352.025055 
		C305.936584,352.620667 304.728180,353.164276 303.282898,353.645203 
	z"/>
	<path fill="#AD2C81" opacity="1.000000" stroke="none" 
		d="
	M333.668152,236.076813 
		C332.530579,236.519669 331.085968,236.793564 329.301514,237.025055 
		C330.428162,236.624390 331.894653,236.266113 333.668152,236.076813 
	z"/>
	<path fill="#AD2C81" opacity="1.000000" stroke="none" 
		d="
	M283.743652,153.735199 
		C282.631165,153.426834 281.442932,152.831451 280.124573,151.988190 
		C281.218933,152.309601 282.443451,152.878891 283.743652,153.735199 
	z"/>
	<path fill="#D94A44" opacity="1.000000" stroke="none" 
		d="
	M237.220154,285.985687 
		C236.832886,285.921936 236.928879,285.619049 236.979828,285.468628 
		C237.948990,285.380798 238.867172,285.443390 239.857162,285.740112 
		C239.155106,285.999329 238.381271,286.024384 237.220154,285.985687 
	z"/>
	<path fill="#AD2C81" opacity="1.000000" stroke="none" 
		d="
	M270.144348,354.282166 
		C270.813293,354.170898 271.666687,354.273651 272.725281,354.530762 
		C272.063232,354.622162 271.196045,354.559204 270.144348,354.282166 
	z"/>
	<path fill="#D94A44" opacity="1.000000" stroke="none" 
		d="
	M269.687134,206.618011 
		C269.806641,206.203568 270.200195,206.005569 270.760376,205.755951 
		C271.231964,206.014374 271.536957,206.324387 271.924805,206.831284 
		C271.325531,206.963593 270.643372,206.899033 269.687134,206.618011 
	z"/>
	<path fill="#D94A44" opacity="1.000000" stroke="none" 
		d="
	M221.924423,330.362488 
		C222.273117,330.056976 222.772263,329.996643 223.703766,330.150757 
		C224.136154,330.365234 224.238876,330.830414 224.204102,331.037140 
		C224.169327,331.243866 224.083298,331.654205 224.083298,331.654205 
		C223.413818,331.305328 222.744339,330.956482 221.924423,330.362488 
	z"/>
	<path fill="#AD2C81" opacity="1.000000" stroke="none" 
		d="
	M253.537903,349.057190 
		C253.885773,349.020447 254.217026,349.158905 254.661591,349.437378 
		C254.357040,349.462402 253.939163,349.347412 253.537903,349.057190 
	z"/>
	<path fill="#AD2C81" opacity="1.000000" stroke="none" 
		d="
	M258.577087,351.029846 
		C258.943512,350.896973 259.236115,351.006073 259.607910,351.303711 
		C259.320923,351.342834 258.926331,351.269348 258.577087,351.029846 
	z"/>
	<path fill="#AD2C81" opacity="1.000000" stroke="none" 
		d="
	M262.115234,352.277222 
		C262.499115,352.155060 263.008850,352.221069 263.681091,352.392578 
		C263.309448,352.487213 262.775238,352.476318 262.115234,352.277222 
	z"/>
	<path fill="#AD2C81" opacity="1.000000" stroke="none" 
		d="
	M275.388123,355.425232 
		C275.735626,355.245941 276.137787,355.248413 276.652466,355.362488 
		C276.324249,355.518372 275.883545,355.562653 275.388123,355.425232 
	z"/>
	<path fill="#AD2C81" opacity="1.000000" stroke="none" 
		d="
	M177.814423,174.549377 
		C177.777145,174.976685 177.513550,175.424377 177.058014,175.935654 
		C177.106766,175.522751 177.347427,175.046249 177.814423,174.549377 
	z"/>
	<path fill="#AD2C81" opacity="1.000000" stroke="none" 
		d="
	M313.881592,240.243225 
		C314.106659,240.573776 314.081573,240.769470 313.983398,241.107590 
		C313.502838,241.201981 313.062286,241.149719 312.295349,241.034134 
		C312.534149,240.684738 313.099365,240.398651 313.881592,240.243225 
	z"/>
	<path fill="#BB4590" opacity="1.000000" stroke="none" 
		d="
	M311.708496,241.001480 
		C311.472961,241.457367 310.932312,241.863297 310.196838,242.128174 
		C310.469086,241.641922 310.936249,241.296722 311.708496,241.001480 
	z"/>
	<path fill="#AD2C81" opacity="1.000000" stroke="none" 
		d="
	M178.769379,173.317627 
		C178.928833,173.533463 178.840912,173.691681 178.552704,173.859436 
		C178.282242,173.650543 178.338760,173.447556 178.769379,173.317627 
	z"/>
	<path fill="#B54390" opacity="1.000000" stroke="none" 
		d="
	M224.261505,331.832153 
		C224.083298,331.654205 224.169327,331.243866 224.359619,331.195374 
		C224.773972,331.347046 224.955292,331.580475 225.093842,331.847137 
		C225.093842,331.847137 225.020355,331.951141 224.981018,332.001343 
		C224.774368,332.037750 224.607040,332.023956 224.261505,331.832153 
	z"/>
	<path fill="#D94A44" opacity="1.000000" stroke="none" 
		d="
	M216.894897,327.360901 
		C217.141434,327.165527 217.428604,327.316040 217.819794,327.747620 
		C217.639664,327.835052 217.310226,327.727753 216.894897,327.360901 
	z"/>
	<path fill="#CC218E" opacity="1.000000" stroke="none" 
		d="
	M147.164368,215.503235 
		C147.717438,214.423309 148.377533,213.640457 149.174683,212.584503 
		C154.813660,206.638214 160.322250,200.971451 165.810883,195.285416 
		C166.723190,194.340302 167.548538,193.311279 168.885925,192.437408 
		C173.038040,194.883957 175.251877,199.071838 178.273865,201.418152 
		C183.919449,205.801468 184.320892,211.534332 186.101440,217.186020 
		C186.632812,218.872650 187.853317,221.092850 189.277603,221.594971 
		C192.482742,222.724960 193.052887,225.042038 194.189468,227.743515 
		C196.255875,232.655075 198.773148,237.522903 201.961456,241.762924 
		C203.939896,244.393967 203.352402,245.401611 201.242081,246.778473 
		C199.515121,247.905243 197.726456,248.937454 195.965149,250.011597 
		C184.839233,251.505188 173.186310,251.422394 162.729797,254.918228 
		C151.377640,258.713501 142.230591,253.973953 132.064041,251.380676 
		C137.858154,251.381683 143.825516,251.935303 149.793671,251.943695 
		C154.204666,251.949890 158.644974,251.437607 163.018387,250.791702 
		C166.019562,250.348480 167.324265,246.217270 165.103500,243.068680 
		C162.243301,239.013519 161.800812,233.376282 156.555237,230.762253 
		C154.925049,229.949875 154.229660,227.256516 153.112732,225.420395 
		C151.163010,222.215286 149.218262,219.007156 147.164368,215.503235 
	z"/>
	<path fill="#14080B" opacity="1.000000" stroke="none" 
		d="
	M289.077026,291.080627 
		C294.644104,288.066681 300.195221,285.033386 306.390381,281.719299 
		C310.251556,281.338531 313.468658,281.238556 316.772888,281.541992 
		C315.631073,285.617340 314.402100,289.289215 312.852966,293.093201 
		C306.482178,296.532349 300.431488,299.839417 293.921600,303.092590 
		C292.536377,303.149963 291.610352,303.261200 290.286133,303.250702 
		C286.112854,302.444702 282.337708,301.760437 278.562592,301.076172 
		C278.710114,300.672607 278.857666,300.269043 279.328735,299.463074 
		C279.889587,298.731781 280.126923,298.402893 280.364258,298.073975 
		C281.855652,296.984985 283.347046,295.896027 285.283569,294.442261 
		C286.852936,293.076416 287.977173,292.075378 289.101410,291.074341 
		C289.101410,291.074341 289.061066,291.061249 289.077026,291.080627 
	z"/>
	<path fill="#F39029" opacity="1.000000" stroke="none" 
		d="
	M270.129669,268.910553 
		C268.341156,271.154297 266.654388,273.158783 264.674896,275.327118 
		C263.639404,272.578430 262.896667,269.665894 262.482697,266.315552 
		C267.845123,263.223114 272.878815,260.568420 277.912476,257.913757 
		C277.912476,257.913757 278.225616,258.232147 278.213135,258.671234 
		C275.800934,262.071014 273.401245,265.031708 271.001587,267.992371 
		C270.744873,268.218689 270.488159,268.444977 270.129669,268.910553 
	z"/>
	<path fill="#BB4590" opacity="1.000000" stroke="none" 
		d="
	M271.336121,267.921143 
		C273.401245,265.031708 275.800934,262.071014 278.369568,258.830566 
		C279.120392,258.338470 279.702301,258.126099 280.592102,257.873230 
		C277.823517,261.171783 274.747101,264.510864 271.336121,267.921143 
	z"/>
	<path fill="#E55841" opacity="1.000000" stroke="none" 
		d="
	M278.335083,301.200958 
		C282.337708,301.760437 286.112854,302.444702 290.152954,303.541443 
		C285.919678,303.570129 281.421478,303.186279 276.923248,302.802429 
		C276.923248,302.802429 276.802551,302.370972 276.731567,302.157593 
		C277.142944,301.738037 277.625275,301.531891 278.335083,301.200958 
	z"/>
	<path fill="#BB4590" opacity="1.000000" stroke="none" 
		d="
	M285.029480,253.125961 
		C285.861145,252.810257 286.692841,252.494553 287.855835,252.115448 
		C291.379211,254.314987 289.178345,255.114838 287.118256,255.874527 
		C285.285553,256.550354 283.416748,257.128357 281.199097,257.830872 
		C281.006317,257.336700 281.178314,256.761169 281.700806,255.805878 
		C283.044067,254.659409 284.036774,253.892685 285.029480,253.125961 
	z"/>
	<path fill="#BD308E" opacity="1.000000" stroke="none" 
		d="
	M288.732483,291.075562 
		C287.977173,292.075378 286.852936,293.076416 285.408386,294.154724 
		C286.179871,293.180237 287.271729,292.128479 288.732483,291.075562 
	z"/>
	<path fill="#F39029" opacity="1.000000" stroke="none" 
		d="
	M288.493774,251.269226 
		C288.665771,250.938110 289.133667,250.587692 289.907776,250.246948 
		C289.739197,250.587723 289.264435,250.918823 288.493774,251.269226 
	z"/>
	<path fill="#BB4590" opacity="1.000000" stroke="none" 
		d="
	M280.106934,298.219055 
		C280.126923,298.402893 279.889587,298.731781 279.349792,299.140991 
		C279.314758,298.935547 279.582184,298.649841 280.106934,298.219055 
	z"/>
	<path fill="#EB5745" opacity="1.000000" stroke="none" 
		d="
	M292.670563,162.209930 
		C302.556824,169.172272 302.912598,179.983215 305.123230,189.984192 
		C305.552155,191.924637 306.005280,193.859818 306.458008,195.794907 
		C308.489197,204.476685 308.147919,205.076996 299.320129,207.854279 
		C296.818481,202.950821 294.341309,198.013123 292.568909,192.834244 
		C290.429047,186.581741 288.856842,180.132950 287.105286,173.750916 
		C286.624908,172.000549 285.756836,170.034836 286.143341,168.426712 
		C287.468872,162.912186 284.624146,161.396255 279.978760,160.866226 
		C278.410522,160.687302 276.932800,159.715668 275.238983,158.858215 
		C280.810822,159.756424 286.557373,160.902756 292.670563,162.209930 
	z"/>
	<path fill="#F06E39" opacity="1.000000" stroke="none" 
		d="
	M257.019897,159.655365 
		C257.791718,159.542343 258.563538,159.429321 259.885040,159.522186 
		C261.315247,159.409225 262.195740,159.090378 263.076263,158.771515 
		C265.091064,158.656387 267.105865,158.541275 269.546234,158.548187 
		C271.416992,164.271881 272.831116,169.881805 274.315979,175.472916 
		C275.832062,181.181412 275.079956,182.253387 269.025391,183.071609 
		C268.106873,183.195740 267.251556,183.787369 266.192627,184.470078 
		C264.956573,184.901947 263.894897,185.026474 262.420288,184.698792 
		C261.181854,181.264832 260.413666,178.265656 259.511292,175.307388 
		C258.888000,173.264069 257.156921,171.081589 257.534271,169.303711 
		C258.490692,164.797302 256.017365,163.060547 252.624451,161.442932 
		C252.504532,161.380493 252.329803,161.174118 252.329803,161.174118 
		C252.329803,161.174118 252.634995,161.011917 253.136871,160.986786 
		C254.765808,160.526215 255.892853,160.090790 257.019897,159.655365 
	z"/>
	<path fill="#F4B31B" opacity="1.000000" stroke="none" 
		d="
	M277.939026,257.454285 
		C272.878815,260.568420 267.845123,263.223114 262.480560,265.958923 
		C259.225189,264.550537 256.300751,263.060974 253.499039,261.044678 
		C254.067505,259.493286 254.853561,258.485443 254.904999,257.441406 
		C255.308716,249.249908 255.644821,241.052719 255.783447,232.853592 
		C255.800369,231.853348 254.523636,230.831238 253.884827,229.543045 
		C253.948364,228.895447 253.973480,228.524063 253.977478,228.029907 
		C253.956345,227.907150 253.870850,227.673111 254.164856,227.605896 
		C255.171188,226.356689 255.883530,225.174683 256.595856,223.992676 
		C258.052704,222.018967 259.509552,220.045242 261.196960,217.848022 
		C264.702026,218.106476 268.066650,218.265808 271.229156,219.148941 
		C275.550323,220.355637 278.270325,222.883743 278.097626,228.090424 
		C277.778412,237.716080 277.980591,247.359039 277.939026,257.454285 
	z"/>
	<path fill="#C43191" opacity="1.000000" stroke="none" 
		d="
	M241.388031,198.698318 
		C245.534805,198.541290 250.285553,202.067734 251.788422,206.022781 
		C253.282379,209.954300 255.113724,213.757645 257.131653,218.384201 
		C256.761414,219.299667 255.962891,221.274185 254.950409,223.893860 
		C254.447937,225.583725 254.159409,226.628418 253.870850,227.673111 
		C253.870850,227.673111 253.956345,227.907150 253.682007,228.062714 
		C252.664261,228.489304 251.920837,228.760345 250.776962,229.027710 
		C248.063965,229.813065 245.652496,230.392822 243.457458,231.430420 
		C236.926102,234.517838 230.479797,237.785202 224.115463,240.654633 
		C229.680222,234.198898 229.603683,229.172562 224.064178,223.177048 
		C223.295654,222.345261 222.644623,221.285904 222.286209,220.215683 
		C221.016937,216.425781 218.532455,215.730530 214.824966,216.413956 
		C213.013382,216.747910 210.956146,215.749207 209.416809,215.237549 
		C213.491684,214.162643 217.362244,213.657745 220.778702,212.134445 
		C225.426544,210.062088 229.727554,207.211823 234.585266,204.708191 
		C235.953964,203.677643 236.914688,202.634048 237.992950,201.317932 
		C239.203018,200.263031 240.295517,199.480682 241.388031,198.698318 
	z"/>
	<path fill="#F28132" opacity="1.000000" stroke="none" 
		d="
	M252.744385,161.505356 
		C256.017365,163.060547 258.490692,164.797302 257.534271,169.303711 
		C257.156921,171.081589 258.888000,173.264069 259.511292,175.307388 
		C260.413666,178.265656 261.181854,181.264832 262.020874,184.672379 
		C257.679321,187.096710 253.324203,189.095215 248.282104,191.166260 
		C247.030807,191.583206 246.466507,191.927628 245.486877,192.262817 
		C242.071091,191.837006 239.070648,191.420441 236.047943,190.604950 
		C235.574020,188.852203 235.287582,187.412811 234.639267,186.160812 
		C232.802414,182.613602 230.817474,179.143066 229.057999,175.362320 
		C235.035400,171.262344 240.845673,167.442383 246.969833,163.648193 
		C247.858994,163.170959 248.434250,162.667938 249.252625,161.973724 
		C249.634552,161.630051 249.773346,161.477570 249.912155,161.325073 
		C250.457947,161.325256 251.003754,161.325455 252.050186,161.333099 
		C252.550827,161.340576 252.744385,161.505356 252.744385,161.505356 
	z"/>
	<path fill="#14080B" opacity="1.000000" stroke="none" 
		d="
	M234.177307,204.695160 
		C229.727554,207.211823 225.426544,210.062088 220.778702,212.134445 
		C217.362244,213.657745 213.491684,214.162643 209.103333,215.085846 
		C207.924286,215.022888 207.465393,214.995499 206.854141,214.688568 
		C206.190948,213.271164 205.680130,212.133316 205.317261,210.827637 
		C205.621078,210.349182 205.574387,210.072784 205.630936,209.662811 
		C206.251602,208.664185 206.566422,207.833374 207.075958,206.796509 
		C207.345703,206.054871 207.420731,205.519302 207.798981,204.893921 
		C208.760513,203.994629 209.418839,203.185135 210.301743,202.073761 
		C210.451904,201.532318 210.377472,201.292786 210.204590,201.150696 
		C210.106171,201.248154 210.303421,201.442657 210.607941,201.500549 
		C211.662674,200.876678 212.412872,200.194916 213.496216,199.387024 
		C218.004532,195.627365 222.674835,193.080215 228.749908,192.744812 
		C234.246017,193.306854 239.306549,193.783798 244.367065,194.260742 
		C243.474487,195.536209 242.581909,196.811661 241.538681,198.392715 
		C240.295517,199.480682 239.203018,200.263031 237.655670,201.426147 
		C236.192993,202.769669 235.185150,203.732422 234.177307,204.695160 
	z"/>
	<path fill="#D94A44" opacity="1.000000" stroke="none" 
		d="
	M244.602005,194.186493 
		C239.306549,193.783798 234.246017,193.306854 228.865540,192.436493 
		C231.053787,191.696701 233.561981,191.350296 236.070190,191.003876 
		C239.070648,191.420441 242.071091,191.837006 245.525528,192.517426 
		C246.005096,192.952866 246.030701,193.124466 246.056305,193.296082 
		C245.649841,193.568130 245.243393,193.840195 244.602005,194.186493 
	z"/>
	<path fill="#BB4590" opacity="1.000000" stroke="none" 
		d="
	M254.164856,227.605896 
		C254.159409,226.628418 254.447937,225.583725 254.888519,224.245087 
		C255.386154,223.961060 255.731750,223.970978 256.336609,223.986786 
		C255.883530,225.174683 255.171188,226.356689 254.164856,227.605896 
	z"/>
	<path fill="#EB6241" opacity="1.000000" stroke="none" 
		d="
	M246.347153,193.168060 
		C246.030701,193.124466 246.005096,192.952866 245.940857,192.526657 
		C246.466507,191.927628 247.030807,191.583206 247.934570,191.226181 
		C247.728683,191.822418 247.183350,192.431229 246.347153,193.168060 
	z"/>
	<path fill="#CC218E" opacity="1.000000" stroke="none" 
		d="
	M351.966919,238.369598 
		C352.806885,237.820129 353.619873,237.642075 354.687500,237.286499 
		C362.774689,238.247360 370.607178,239.385773 378.489685,240.913818 
		C378.026581,242.199585 377.513519,243.095734 376.620117,243.966629 
		C374.493744,243.630356 372.747681,243.319336 370.533783,243.005157 
		C367.083191,243.001450 364.050171,242.654480 361.129028,243.078354 
		C356.264862,243.784149 351.423401,244.804398 346.682648,246.096649 
		C345.428741,246.438446 343.641144,248.305130 343.694214,249.393860 
		C344.039490,256.479584 344.546356,263.583130 345.536987,270.605164 
		C346.748810,279.195007 348.274567,287.756805 350.117981,296.232117 
		C350.721985,299.008850 352.741730,301.477661 354.114014,304.087280 
		C348.276459,312.629425 342.438873,321.171539 336.164581,329.534058 
		C335.161438,326.940155 334.885468,324.410797 333.981293,322.130493 
		C328.309998,307.827606 327.035156,292.671967 324.900665,277.650482 
		C324.007233,271.363037 322.555725,265.031525 320.348999,259.095123 
		C318.732513,254.746445 319.382111,252.221146 323.132416,249.922440 
		C324.896057,248.841431 326.390747,247.321579 328.007324,246.000610 
		C328.445892,245.997940 328.884430,245.995270 329.651520,245.990799 
		C336.009674,244.904404 342.090027,244.029495 348.033905,242.590683 
		C349.557281,242.221939 350.649597,240.072403 351.966919,238.369598 
	z"/>
	<path fill="#C92892" opacity="1.000000" stroke="none" 
		d="
	M327.619202,246.026199 
		C326.390747,247.321579 324.896057,248.841431 323.132416,249.922440 
		C319.382111,252.221146 318.732513,254.746445 320.348999,259.095123 
		C322.555725,265.031525 324.007233,271.363037 324.900665,277.650482 
		C327.035156,292.671967 328.309998,307.827606 333.981293,322.130493 
		C334.885468,324.410797 335.161438,326.940155 335.882568,329.719116 
		C331.421356,336.370972 325.852203,341.525543 318.333862,344.892853 
		C313.223572,339.306274 316.098816,331.456757 312.649933,325.330597 
		C312.491150,325.048553 312.410980,324.700806 312.374451,324.374664 
		C311.567505,317.173859 310.771912,309.971802 310.020935,301.944092 
		C310.648376,299.737701 311.229065,298.357178 312.051392,296.858643 
		C312.715576,296.139252 313.138062,295.537811 313.817810,294.789673 
		C315.592499,291.372955 317.326477,288.176819 318.482788,284.783813 
		C318.791473,283.878052 317.332977,282.370087 316.685760,281.138580 
		C313.468658,281.238556 310.251556,281.338531 306.591553,281.447693 
		C304.925446,276.024261 304.042664,270.485809 302.394745,265.185242 
		C300.223694,258.201996 301.356171,254.883926 308.456451,252.209000 
		C314.613953,249.889267 320.965363,248.084305 327.619202,246.026199 
	z"/>
	<path fill="#F39029" opacity="1.000000" stroke="none" 
		d="
	M311.809753,296.976654 
		C311.229065,298.357178 310.648376,299.737701 310.004700,301.482880 
		C306.721436,306.410889 303.501190,310.974274 299.935364,315.899414 
		C299.372192,316.416168 299.256042,316.627045 299.241302,316.893860 
		C299.241302,316.893860 298.990387,317.226837 298.642090,317.562317 
		C297.803131,318.566071 297.312439,319.234375 296.821747,319.902679 
		C296.821747,319.902679 296.802338,319.858826 296.778748,319.848511 
		C291.946350,323.310883 287.137512,326.783539 281.846313,330.648987 
		C281.061829,331.344788 280.759735,331.647827 280.457642,331.950867 
		C279.124054,332.468231 277.790497,332.985596 276.223999,333.711700 
		C270.897858,334.903503 265.804626,335.886566 260.104309,336.672729 
		C259.010651,336.304901 258.524017,336.133972 258.052734,335.607849 
		C258.717621,333.509613 259.367188,331.766541 260.389191,330.018616 
		C261.506592,330.003326 262.251526,329.992920 263.260437,330.147400 
		C266.442108,329.362885 269.512085,328.721344 272.233521,327.375214 
		C274.817474,326.096985 276.147736,324.357727 274.833038,320.647583 
		C273.296997,316.312744 273.405853,311.395111 272.801056,306.730316 
		C272.801056,306.730316 272.842957,306.792419 273.137024,306.762573 
		C273.925537,306.081360 274.419983,305.429932 274.914459,304.778534 
		C275.439209,304.242706 275.963959,303.706879 276.705994,302.986755 
		C281.421478,303.186279 285.919678,303.570129 290.551117,303.663208 
		C291.610352,303.261200 292.536377,303.149963 294.183228,303.266357 
		C296.776672,303.175537 298.792023,303.193115 300.492950,302.470520 
		C304.347504,300.832947 308.047119,298.830658 311.809753,296.976654 
	z"/>
	<path fill="#B54390" opacity="1.000000" stroke="none" 
		d="
	M280.745728,331.811157 
		C280.759735,331.647827 281.061829,331.344788 281.667786,330.928925 
		C281.659027,331.101166 281.346405,331.386292 280.745728,331.811157 
	z"/>
	<path fill="#C13994" opacity="1.000000" stroke="none" 
		d="
	M249.755859,161.111237 
		C249.773346,161.477570 249.634552,161.630051 248.957581,161.980820 
		C247.831589,162.660233 247.243759,163.141327 246.655930,163.622421 
		C240.845673,167.442383 235.035400,171.262344 228.799561,175.493668 
		C227.903931,176.240845 227.433853,176.576660 226.722504,176.797653 
		C226.315384,176.617935 226.149490,176.553055 225.951141,176.156799 
		C223.455551,172.144135 222.228973,167.411560 216.936066,166.193817 
		C215.825607,165.938324 214.745789,164.218323 214.235413,162.940140 
		C212.810806,159.372421 211.868225,155.606155 210.341766,152.089081 
		C209.904831,151.082306 208.127472,150.657288 206.964752,149.965515 
		C210.927841,147.726929 214.676178,144.850662 218.912689,143.424026 
		C223.404373,141.911453 228.359848,141.776031 233.542511,141.045181 
		C234.032516,141.375046 234.016220,141.940964 234.164124,141.987762 
		C239.446869,143.658524 239.311554,149.763748 243.026855,152.869675 
		C244.529495,154.125870 244.538513,157.168716 245.425156,160.039337 
		C246.302872,160.219757 247.951233,160.558578 249.755859,161.111237 
	M232.334885,144.902374 
		C232.117874,144.941269 231.900864,144.980164 231.683853,145.019058 
		C231.897873,145.070450 232.111877,145.121826 232.334885,144.902374 
	z"/>
	<path fill="#EB6241" opacity="1.000000" stroke="none" 
		d="
	M262.766968,158.638519 
		C262.195740,159.090378 261.315247,159.409225 260.276001,159.530548 
		C260.897430,159.057190 261.677551,158.781357 262.766968,158.638519 
	z"/>
	<path fill="#EB5745" opacity="1.000000" stroke="none" 
		d="
	M256.684814,159.516602 
		C255.892853,160.090790 254.765808,160.526215 253.302994,160.939148 
		C254.094742,160.403717 255.222244,159.890778 256.684814,159.516602 
	z"/>
	<path fill="#C13994" opacity="1.000000" stroke="none" 
		d="
	M252.624451,161.442932 
		C252.744385,161.505356 252.550827,161.340576 252.453949,161.257904 
		C252.357056,161.175217 252.370728,161.184753 252.350266,161.179443 
		C252.329803,161.174118 252.504532,161.380493 252.624451,161.442932 
	z"/>
	<path fill="#F06E39" opacity="1.000000" stroke="none" 
		d="
	M262.996460,329.982483 
		C262.251526,329.992920 261.506592,330.003326 259.961914,330.019989 
		C254.947159,330.371002 250.724808,330.645264 246.519791,331.085266 
		C243.692535,331.381104 240.787979,331.792725 241.023682,335.773010 
		C235.967957,334.485718 230.912231,333.198456 225.475174,331.879150 
		C224.955292,331.580475 224.773972,331.347046 224.394379,330.988647 
		C224.238876,330.830414 224.136154,330.365234 224.080872,330.132629 
		C224.794098,328.951355 225.562607,328.002625 226.676514,327.009247 
		C228.081833,326.972168 229.141785,326.979736 230.941193,327.206604 
		C233.467133,327.617706 235.253723,327.972473 237.040024,327.971008 
		C242.645706,327.966400 243.400925,327.034851 242.363281,321.512634 
		C241.817123,318.606110 240.797318,315.751526 240.592285,312.831299 
		C240.460373,310.952423 241.420700,308.996918 241.891449,307.075745 
		C246.538071,311.525391 252.399139,310.941010 258.605652,311.395721 
		C263.326202,317.236755 266.722931,322.846893 262.996460,329.982483 
	z"/>
	<path fill="#F28132" opacity="1.000000" stroke="none" 
		d="
	M241.348770,335.861298 
		C240.787979,331.792725 243.692535,331.381104 246.519791,331.085266 
		C250.724808,330.645264 254.947159,330.371002 259.589417,330.024841 
		C259.367188,331.766541 258.717621,333.509613 258.035187,335.807983 
		C257.978394,336.624817 257.957428,336.886536 257.939484,337.148468 
		C256.221191,337.244568 254.502930,337.340698 252.227814,337.140076 
		C250.814453,336.855927 249.957932,336.868500 249.101395,336.881104 
		C248.000351,336.847656 246.899307,336.814240 245.313049,336.483337 
		C244.224197,336.120239 243.620529,336.054626 243.016876,335.988983 
		C242.569199,335.975830 242.121536,335.962708 241.348770,335.861298 
	z"/>
	<path fill="#F06E39" opacity="1.000000" stroke="none" 
		d="
	M249.339294,337.080811 
		C249.957932,336.868500 250.814453,336.855927 251.806717,337.023865 
		C251.154037,337.229767 250.365616,337.255157 249.339294,337.080811 
	z"/>
	<path fill="#F06E39" opacity="1.000000" stroke="none" 
		d="
	M243.216293,336.181580 
		C243.620529,336.054626 244.224197,336.120239 244.910126,336.385040 
		C244.466827,336.514221 243.941269,336.444214 243.216293,336.181580 
	z"/>
	<path fill="#F06E39" opacity="1.000000" stroke="none" 
		d="
	M258.190063,337.265930 
		C257.957428,336.886536 257.978394,336.624817 258.019867,336.163177 
		C258.524017,336.133972 259.010651,336.304901 259.689575,336.645996 
		C259.401489,337.005249 258.921082,337.194336 258.190063,337.265930 
	z"/>
	<path fill="#C13994" opacity="1.000000" stroke="none" 
		d="
	M297.148682,319.819885 
		C297.312439,319.234375 297.803131,318.566071 298.588867,317.763855 
		C298.414490,318.332306 297.945038,319.034698 297.148682,319.819885 
	z"/>
	<path fill="#C13994" opacity="1.000000" stroke="none" 
		d="
	M299.371735,316.780701 
		C299.256042,316.627045 299.372192,316.416168 299.763123,316.196289 
		C299.812866,316.327271 299.668091,316.506012 299.371735,316.780701 
	z"/>
	<path fill="#BB4590" opacity="1.000000" stroke="none" 
		d="
	M224.000275,240.982269 
		C230.479797,237.785202 236.926102,234.517838 243.457458,231.430420 
		C245.652496,230.392822 248.063965,229.813065 250.647400,229.330414 
		C250.310455,230.744827 249.702621,231.852890 249.040680,232.976303 
		C248.986572,232.991653 248.960373,233.101044 248.676682,233.147751 
		C247.956451,233.774811 247.519897,234.355179 247.026932,234.946442 
		C246.970505,234.957336 246.929047,235.064529 246.611053,235.095978 
		C245.120453,236.299622 243.947815,237.471817 242.543823,238.749435 
		C242.178818,238.959122 242.045181,239.063400 241.613220,239.192993 
		C240.467743,240.022003 239.620621,240.825729 238.530823,241.805038 
		C237.824463,242.359482 237.360764,242.738327 236.578308,243.134827 
		C235.140396,244.055954 234.021255,244.959442 232.902100,245.862930 
		C232.902100,245.862930 232.994049,245.970428 232.621338,245.930389 
		C231.444183,246.482300 230.639740,247.074280 229.545532,247.732635 
		C228.685944,248.279190 228.116104,248.759354 227.546265,249.239532 
		C227.111069,249.520889 226.675888,249.802277 225.988251,250.114319 
		C222.915070,250.600388 220.036346,250.834412 217.285049,251.554916 
		C210.460617,253.342117 203.718369,255.445328 196.884369,257.191803 
		C195.532944,257.537170 193.918655,256.854004 192.425598,256.645172 
		C193.268784,255.243118 194.060364,253.806091 194.977234,252.454010 
		C195.425125,251.793533 196.106339,251.291275 197.200592,250.355042 
		C206.479599,246.989212 215.239944,243.985748 224.000275,240.982269 
	z"/>
	<path fill="#F2CC17" opacity="1.000000" stroke="none" 
		d="
	M241.911545,239.167694 
		C242.045181,239.063400 242.178818,238.959122 242.880341,238.769928 
		C244.608505,237.478195 245.768768,236.271362 246.929047,235.064514 
		C246.929047,235.064529 246.970505,234.957336 247.306229,234.893127 
		C248.081421,234.252960 248.520889,233.677002 248.960373,233.101044 
		C248.960373,233.101044 248.986572,232.991653 249.352600,232.927017 
		C251.094559,231.848007 252.470490,230.833618 253.846436,229.819244 
		C254.523636,230.831238 255.800369,231.853348 255.783447,232.853592 
		C255.644821,241.052719 255.308716,249.249908 254.904999,257.441406 
		C254.853561,258.485443 254.067505,259.493286 253.315140,260.755676 
		C248.824539,256.564819 244.653519,252.123856 240.446243,247.717529 
		C239.558243,246.787506 238.537354,245.984406 237.267883,244.732910 
		C236.937744,243.934372 236.917419,243.525787 236.897095,243.117188 
		C237.360764,242.738327 237.824463,242.359482 238.855743,241.826126 
		C240.252747,240.836975 241.082138,240.002335 241.911545,239.167694 
	z"/>
	<path fill="#F2CC17" opacity="1.000000" stroke="none" 
		d="
	M227.666092,249.570129 
		C228.116104,248.759354 228.685944,248.279190 229.870758,247.813904 
		C230.932495,247.833374 231.379227,247.837952 231.825974,247.842529 
		C232.870407,248.979431 234.372986,249.945465 234.872665,251.285461 
		C236.323303,255.175629 237.428146,259.199768 238.563202,263.201263 
		C239.895004,267.896240 241.976288,271.318451 247.759796,271.251648 
		C249.539444,271.231110 251.974609,272.938843 252.956909,274.555573 
		C253.918015,276.137421 253.409607,278.612122 253.546234,280.694916 
		C251.945297,280.530396 250.208954,280.712250 248.764465,280.147522 
		C235.032410,274.779205 229.361588,263.742889 227.666092,249.570129 
	z"/>
	<path fill="#F39029" opacity="1.000000" stroke="none" 
		d="
	M236.578308,243.134827 
		C236.917419,243.525787 236.937744,243.934372 236.930801,244.649536 
		C235.801910,245.275970 234.700302,245.595840 233.250397,245.889313 
		C234.021255,244.959442 235.140396,244.055954 236.578308,243.134827 
	z"/>
	<path fill="#F39029" opacity="1.000000" stroke="none" 
		d="
	M231.984192,247.610809 
		C231.379227,247.837952 230.932495,247.833374 230.160522,247.747513 
		C230.639740,247.074280 231.444183,246.482300 232.569122,245.883270 
		C232.640549,246.377151 232.391479,246.878113 231.984192,247.610809 
	z"/>
	<path fill="#EB6241" opacity="1.000000" stroke="none" 
		d="
	M241.921051,306.693604 
		C241.420700,308.996918 240.460373,310.952423 240.592285,312.831299 
		C240.797318,315.751526 241.817123,318.606110 242.363281,321.512634 
		C243.400925,327.034851 242.645706,327.966400 237.040024,327.971008 
		C235.253723,327.972473 233.467133,327.617706 231.339142,327.206787 
		C234.695587,322.895477 232.441849,318.207916 231.566757,314.145752 
		C229.655243,305.272583 226.733337,296.617065 224.177994,287.525238 
		C225.520126,286.877075 226.908447,286.576294 228.652985,286.219727 
		C231.064362,286.444305 233.119522,286.724609 235.585205,287.010712 
		C236.715012,293.113129 237.434296,299.209808 238.120850,305.029236 
		C240.587387,302.898285 242.826523,300.963837 245.406158,298.995514 
		C244.481323,301.411621 243.215973,303.861542 241.921051,306.693604 
	z"/>
	<path fill="#F28132" opacity="1.000000" stroke="none" 
		d="
	M263.260437,330.147369 
		C266.722931,322.846893 263.326202,317.236755 259.060242,311.456177 
		C263.360779,309.644714 267.704529,308.180664 272.424652,306.723450 
		C273.405853,311.395111 273.296997,316.312744 274.833038,320.647583 
		C276.147736,324.357727 274.817474,326.096985 272.233521,327.375214 
		C269.512085,328.721344 266.442108,329.362885 263.260437,330.147369 
	z"/>
	<path fill="#F28132" opacity="1.000000" stroke="none" 
		d="
	M274.613525,304.872284 
		C274.419983,305.429932 273.925537,306.081360 273.101624,306.774872 
		C273.285645,306.199982 273.799133,305.583008 274.613525,304.872284 
	z"/>
	<path fill="#D50F8A" opacity="1.000000" stroke="none" 
		d="
	M371.001648,243.008316 
		C372.747681,243.319336 374.493744,243.630356 376.953583,244.180847 
		C382.818817,244.014343 387.815674,248.191559 393.063110,244.939590 
		C394.509766,245.153671 395.956451,245.367752 397.741760,246.122086 
		C398.754913,249.336777 400.219055,249.261414 402.078247,247.810349 
		C406.966797,249.379990 411.876373,250.889420 416.722748,252.580017 
		C417.507111,252.853638 418.668060,254.193787 418.511993,254.585526 
		C418.150085,255.493774 417.206787,256.550934 416.293793,256.802673 
		C399.602509,261.404816 386.361145,271.660400 372.939270,282.880249 
		C371.545624,284.053741 370.782928,285.021698 370.020233,285.989685 
		C370.020233,285.989685 370.009216,286.010071 369.619629,285.975098 
		C368.203217,285.030304 366.438202,284.240601 366.267426,283.191406 
		C364.999908,275.404480 364.033081,267.568085 363.005524,259.742798 
		C362.483978,255.771027 362.032257,251.790070 361.453064,247.023682 
		C362.350800,246.670822 364.147186,245.998840 365.915558,245.259903 
		C367.625916,244.545227 369.307465,243.761627 371.001648,243.008316 
	z"/>
	<path fill="#CD1689" opacity="1.000000" stroke="none" 
		d="
	M370.533783,243.005157 
		C369.307465,243.761627 367.625916,244.545227 365.915558,245.259903 
		C364.147186,245.998840 362.350800,246.670822 361.453064,247.023682 
		C362.032257,251.790070 362.483978,255.771027 363.005524,259.742798 
		C364.033081,267.568085 364.999908,275.404480 366.267426,283.191406 
		C366.438202,284.240601 368.203217,285.030304 369.608978,285.979706 
		C364.872498,291.908356 359.757080,297.797485 354.377808,303.886932 
		C352.741730,301.477661 350.721985,299.008850 350.117981,296.232117 
		C348.274567,287.756805 346.748810,279.195007 345.536987,270.605164 
		C344.546356,263.583130 344.039490,256.479584 343.694214,249.393860 
		C343.641144,248.305130 345.428741,246.438446 346.682648,246.096649 
		C351.423401,244.804398 356.264862,243.784149 361.129028,243.078354 
		C364.050171,242.654480 367.083191,243.001450 370.533783,243.005157 
	z"/>
	<path fill="#CD1689" opacity="1.000000" stroke="none" 
		d="
	M392.895844,244.625397 
		C387.815674,248.191559 382.818817,244.014343 377.333923,244.206085 
		C377.513519,243.095734 378.026581,242.199585 378.805725,241.118744 
		C380.133575,241.001587 381.195404,241.069138 382.719849,241.400391 
		C383.789093,241.770798 384.395660,241.877502 385.002258,241.984207 
		C387.577698,242.759857 390.153137,243.535522 392.895844,244.625397 
	z"/>
	<path fill="#CD1689" opacity="1.000000" stroke="none" 
		d="
	M401.858826,247.567627 
		C400.219055,249.261414 398.754913,249.336777 398.049225,246.314850 
		C399.225159,246.419861 400.432281,246.872375 401.858826,247.567627 
	z"/>
	<path fill="#CD1689" opacity="1.000000" stroke="none" 
		d="
	M370.283203,285.837830 
		C370.782928,285.021698 371.545624,284.053741 372.655090,283.057373 
		C372.183319,283.914612 371.364777,284.800293 370.283203,285.837830 
	z"/>
	<path fill="#CC218E" opacity="1.000000" stroke="none" 
		d="
	M384.791504,241.816315 
		C384.395660,241.877502 383.789093,241.770798 383.117493,241.446350 
		C383.561920,241.368546 384.071350,241.508484 384.791504,241.816315 
	z"/>
	<path fill="#C92892" opacity="1.000000" stroke="none" 
		d="
	M224.115463,240.654633 
		C215.239944,243.985748 206.479599,246.989212 197.318359,250.043060 
		C196.917465,250.093445 196.441818,250.051880 196.203476,250.031738 
		C197.726456,248.937454 199.515121,247.905243 201.242081,246.778473 
		C203.352402,245.401611 203.939896,244.393967 201.961456,241.762924 
		C198.773148,237.522903 196.255875,232.655075 194.189468,227.743515 
		C193.052887,225.042038 192.482742,222.724960 189.277603,221.594971 
		C187.853317,221.092850 186.632812,218.872650 186.101440,217.186020 
		C184.320892,211.534332 183.919449,205.801468 178.273865,201.418152 
		C175.251877,199.071838 173.038040,194.883957 169.166443,192.252808 
		C170.406067,189.157639 171.837067,186.363495 173.432114,183.112549 
		C173.596161,182.655762 173.814880,182.289200 173.814880,182.289200 
		C174.109619,181.985931 174.404343,181.682678 174.939697,181.167847 
		C176.769165,178.642380 178.358032,176.328476 179.972351,173.683426 
		C179.997803,173.352295 180.182953,173.067947 180.366577,172.851105 
		C180.677094,172.521500 180.776306,172.388123 180.847885,172.234161 
		C181.138962,171.933655 181.430023,171.633148 182.096573,171.005066 
		C182.663101,170.512329 182.832230,170.327148 182.979431,170.121948 
		C185.124939,167.847565 187.270432,165.573181 189.855209,163.445190 
		C192.884552,169.679047 195.404465,175.798035 198.117401,181.830215 
		C198.741608,183.218109 200.079926,184.270691 201.000732,185.541962 
		C204.088135,189.804459 207.135345,194.096085 210.191467,198.753998 
		C210.224457,199.901840 210.263947,200.672241 210.303421,201.442657 
		C210.303421,201.442657 210.106171,201.248154 209.989532,201.269913 
		C209.600494,201.474701 209.342377,201.676025 208.757965,202.068893 
		C208.110168,203.155975 207.802963,204.069855 207.495743,204.983719 
		C207.420731,205.519302 207.345703,206.054871 206.764450,206.955292 
		C205.947189,208.156952 205.636139,208.993790 205.325104,209.830627 
		C205.574387,210.072784 205.621078,210.349182 205.010895,210.924316 
		C204.298508,212.124100 203.572922,213.642410 203.872314,213.882477 
		C204.684799,214.533981 205.931793,214.643631 207.006516,214.968109 
		C207.465393,214.995499 207.924286,215.022888 208.696625,215.201996 
		C210.956146,215.749207 213.013382,216.747910 214.824966,216.413956 
		C218.532455,215.730530 221.016937,216.425781 222.286209,220.215683 
		C222.644623,221.285904 223.295654,222.345261 224.064178,223.177048 
		C229.603683,229.172562 229.680222,234.198898 224.115463,240.654633 
	z"/>
	<path fill="#F4B31B" opacity="1.000000" stroke="none" 
		d="
	M284.971375,252.793686 
		C284.036774,253.892685 283.044067,254.659409 281.744263,255.506592 
		C282.067230,253.781509 282.697266,251.975952 283.635742,250.057373 
		C284.267242,250.783356 284.590271,251.622375 284.971375,252.793686 
	z"/>
	<path fill="#F4B31B" opacity="1.000000" stroke="none" 
		d="
	M285.697327,245.062454 
		C285.528473,245.582275 285.073425,246.202225 284.334595,246.921356 
		C284.504211,246.401215 284.957672,245.781906 285.697327,245.062454 
	z"/>
	<path fill="#C43191" opacity="1.000000" stroke="none" 
		d="
	M210.197952,198.376556 
		C207.135345,194.096085 204.088135,189.804459 201.000732,185.541962 
		C200.079926,184.270691 198.741608,183.218109 198.117401,181.830215 
		C195.404465,175.798035 192.884552,169.679047 190.134430,163.262848 
		C194.741745,158.991440 199.509109,155.048782 204.814270,151.164261 
		C205.893524,150.804474 206.435013,150.386581 206.976501,149.968674 
		C206.976501,149.968674 206.991928,149.980499 206.978333,149.973007 
		C208.127472,150.657288 209.904831,151.082306 210.341766,152.089081 
		C211.868225,155.606155 212.810806,159.372421 214.235413,162.940140 
		C214.745789,164.218323 215.825607,165.938324 216.936066,166.193817 
		C222.228973,167.411560 223.455551,172.144135 225.735138,176.449432 
		C223.148743,180.390747 220.745880,183.708084 218.211548,187.246109 
		C218.017136,187.626083 217.954178,187.785355 217.590088,188.067688 
		C215.903748,190.460403 214.518555,192.730057 212.966919,195.252197 
		C212.575623,196.064392 212.350784,196.624115 211.851562,197.265472 
		C211.117432,197.690277 210.657684,198.033417 210.197952,198.376556 
	z"/>
	<path fill="#C13994" opacity="1.000000" stroke="none" 
		d="
	M206.697723,150.028839 
		C206.435013,150.386581 205.893524,150.804474 205.149078,151.075653 
		C205.437073,150.648956 205.928009,150.368988 206.697723,150.028839 
	z"/>
	<path fill="#C43191" opacity="1.000000" stroke="none" 
		d="
	M180.747345,172.307785 
		C180.776306,172.388123 180.677094,172.521500 180.450729,172.703781 
		C180.351242,172.773300 180.646790,172.381409 180.747345,172.307785 
	z"/>
	<path fill="#C43191" opacity="1.000000" stroke="none" 
		d="
	M182.823242,170.228180 
		C182.832230,170.327148 182.663101,170.512329 182.321548,170.786316 
		C182.306244,170.681610 182.471573,170.494675 182.823242,170.228180 
	z"/>
	<path fill="#C43191" opacity="1.000000" stroke="none" 
		d="
	M173.731064,182.357391 
		C173.814880,182.289200 173.596161,182.655762 173.521515,182.728241 
		C173.446884,182.800735 173.647247,182.425583 173.731064,182.357391 
	z"/>
	<path fill="#E55841" opacity="1.000000" stroke="none" 
		d="
	M312.051392,296.858643 
		C308.047119,298.830658 304.347504,300.832947 300.492950,302.470520 
		C298.792023,303.193115 296.776672,303.175537 294.642426,303.320221 
		C300.431488,299.839417 306.482178,296.532349 312.856750,293.434479 
		C313.307343,294.074585 313.433960,294.505493 313.560577,294.936401 
		C313.138062,295.537811 312.715576,296.139252 312.051392,296.858643 
	z"/>
	<path fill="#AD2C81" opacity="1.000000" stroke="none" 
		d="
	M313.817810,294.789673 
		C313.433960,294.505493 313.307343,294.074585 313.176910,293.302368 
		C314.402100,289.289215 315.631073,285.617340 316.772888,281.541992 
		C317.332977,282.370087 318.791473,283.878052 318.482788,284.783813 
		C317.326477,288.176819 315.592499,291.372955 313.817810,294.789673 
	z"/>
	<path fill="#F39029" opacity="1.000000" stroke="none" 
		d="
	M253.884827,229.543030 
		C252.470490,230.833618 251.094559,231.848007 249.406708,232.911667 
		C249.702621,231.852890 250.310455,230.744827 251.047852,229.334076 
		C251.920837,228.760345 252.664261,228.489304 253.703156,228.185471 
		C253.973480,228.524063 253.948364,228.895447 253.884827,229.543030 
	z"/>
	<path fill="#C03B8F" opacity="1.000000" stroke="none" 
		d="
	M234.585266,204.708191 
		C235.185150,203.732422 236.192993,202.769669 237.538116,201.698685 
		C236.914688,202.634048 235.953964,203.677643 234.585266,204.708191 
	z"/>
	<path fill="#F39029" opacity="1.000000" stroke="none" 
		d="
	M212.125946,197.183823 
		C212.350784,196.624115 212.575623,196.064392 213.273682,195.146149 
		C215.128342,192.506607 216.509781,190.225616 217.891235,187.944626 
		C217.954178,187.785355 218.017136,187.626083 218.512085,187.155365 
		C221.617325,183.533417 224.290558,180.222946 226.963776,176.912476 
		C227.433853,176.576660 227.903931,176.240845 228.632446,175.773682 
		C230.817474,179.143066 232.802414,182.613602 234.639267,186.160812 
		C235.287582,187.412811 235.574020,188.852203 236.047943,190.604965 
		C233.561981,191.350296 231.053787,191.696701 228.429932,192.351410 
		C222.674835,193.080215 218.004532,195.627365 213.388947,199.084625 
		C212.674347,198.333527 212.400146,197.758667 212.125946,197.183823 
	z"/>
	<path fill="#EB5745" opacity="1.000000" stroke="none" 
		d="
	M246.969833,163.648193 
		C247.243759,163.141327 247.831589,162.660233 248.714462,162.172028 
		C248.434250,162.667938 247.858994,163.170959 246.969833,163.648193 
	z"/>
	<path fill="#C43191" opacity="1.000000" stroke="none" 
		d="
	M206.854141,214.688568 
		C205.931793,214.643631 204.684799,214.533981 203.872314,213.882477 
		C203.572922,213.642410 204.298508,212.124100 204.862946,211.092133 
		C205.680130,212.133316 206.190948,213.271164 206.854141,214.688568 
	z"/>
	<path fill="#F06E39" opacity="1.000000" stroke="none" 
		d="
	M211.851562,197.265472 
		C212.400146,197.758667 212.674347,198.333527 213.055817,199.210770 
		C212.412872,200.194916 211.662674,200.876678 210.607941,201.500549 
		C210.263947,200.672241 210.224457,199.901840 210.191467,198.753998 
		C210.657684,198.033417 211.117432,197.690277 211.851562,197.265472 
	z"/>
	<path fill="#C43191" opacity="1.000000" stroke="none" 
		d="
	M207.798981,204.893921 
		C207.802963,204.069855 208.110168,203.155975 209.014099,202.164856 
		C209.766266,202.183609 209.921692,202.279617 210.077148,202.375641 
		C209.418839,203.185135 208.760513,203.994629 207.798981,204.893921 
	z"/>
	<path fill="#C43191" opacity="1.000000" stroke="none" 
		d="
	M205.630920,209.662811 
		C205.636139,208.993790 205.947189,208.156952 206.569733,207.161346 
		C206.566422,207.833374 206.251602,208.664185 205.630920,209.662811 
	z"/>
	<path fill="#F06E39" opacity="1.000000" stroke="none" 
		d="
	M210.301727,202.073746 
		C209.921692,202.279617 209.766266,202.183609 209.354675,201.991638 
		C209.342377,201.676025 209.600494,201.474701 210.087952,201.172455 
		C210.377472,201.292786 210.451904,201.532318 210.301727,202.073746 
	z"/>
	<path fill="#F06E39" opacity="1.000000" stroke="none" 
		d="
	M226.722519,176.797653 
		C224.290558,180.222946 221.617325,183.533417 218.643555,186.934662 
		C220.745880,183.708084 223.148743,180.390747 225.767609,176.780792 
		C226.149490,176.553055 226.315384,176.617935 226.722519,176.797653 
	z"/>
	<path fill="#B83E91" opacity="1.000000" stroke="none" 
		d="
	M232.330383,145.037796 
		C232.111877,145.121826 231.897873,145.070450 231.683853,145.019058 
		C231.900864,144.980164 232.117874,144.941269 232.330383,145.037796 
	z"/>
	<path fill="#F39029" opacity="1.000000" stroke="none" 
		d="
	M246.611053,235.095963 
		C245.768768,236.271362 244.608505,237.478195 243.111725,238.664520 
		C243.947815,237.471817 245.120453,236.299622 246.611053,235.095963 
	z"/>
	<path fill="#F39029" opacity="1.000000" stroke="none" 
		d="
	M241.613220,239.192993 
		C241.082138,240.002335 240.252747,240.836975 239.098419,241.650528 
		C239.620621,240.825729 240.467743,240.022003 241.613220,239.192993 
	z"/>
	<path fill="#F39029" opacity="1.000000" stroke="none" 
		d="
	M248.676682,233.147751 
		C248.520889,233.677002 248.081421,234.252960 247.362656,234.882233 
		C247.519897,234.355179 247.956451,233.774811 248.676682,233.147751 
	z"/>
	<path fill="#F06E39" opacity="1.000000" stroke="none" 
		d="
	M217.590088,188.067688 
		C216.509781,190.225616 215.128342,192.506607 213.440125,194.893661 
		C214.518555,192.730057 215.903748,190.460403 217.590088,188.067688 
	z"/>
	</svg>